# Blender v2.82 (sub 7) OBJ File: ''
# www.blender.org
mtllib barracks.mtl
o Cylinder
v 0.000000 0.000000 -0.000000
v 0.000000 2.000000 0.000000
v 1.000000 -0.000000 0.000000
v 1.000000 2.000000 0.000000
v 0.990393 -0.000000 0.097545
v 0.990393 2.000000 0.097545
v 0.961940 -0.000000 0.191342
v 0.961940 2.000000 0.191342
v 0.915735 -0.000000 0.277785
v 0.915735 2.000000 0.277785
v 0.853553 -0.000000 0.353554
v 0.853553 2.000000 0.353554
v 0.777785 -0.000000 0.415735
v 0.777785 2.000000 0.415735
v 0.691341 -0.000000 0.461940
v 0.691341 2.000000 0.461940
v 0.597545 -0.000000 0.490393
v 0.597545 2.000000 0.490393
v 0.500000 -0.000000 0.500000
v 0.500000 2.000000 0.500000
v 0.402454 -0.000000 0.490392
v 0.402454 2.000000 0.490393
v 0.308658 -0.000000 0.461939
v 0.308658 2.000000 0.461940
v 0.222214 -0.000000 0.415734
v 0.222214 2.000000 0.415735
v 0.146446 -0.000000 0.353553
v 0.146446 2.000000 0.353553
v 0.084265 -0.000000 0.277784
v 0.084265 2.000000 0.277785
v 0.038060 -0.000000 0.191341
v 0.038060 2.000000 0.191341
v 0.009607 -0.000000 0.097544
v 0.009607 2.000000 0.097544
v 1.000000 0.000000 -0.000000
v 1.000000 2.000000 0.000000
v 2.000000 -0.000000 0.000000
v 2.000000 2.000000 0.000000
v 1.990393 -0.000000 0.097545
v 1.990393 2.000000 0.097545
v 1.961940 -0.000000 0.191342
v 1.961940 2.000000 0.191342
v 1.915735 -0.000000 0.277785
v 1.915735 2.000000 0.277785
v 1.853553 -0.000000 0.353554
v 1.853553 2.000000 0.353554
v 1.777785 -0.000000 0.415735
v 1.777785 2.000000 0.415735
v 1.691341 -0.000000 0.461940
v 1.691341 2.000000 0.461940
v 1.597545 -0.000000 0.490393
v 1.597545 2.000000 0.490393
v 1.500000 -0.000000 0.500000
v 1.500000 2.000000 0.500000
v 1.402454 -0.000000 0.490392
v 1.402454 2.000000 0.490393
v 1.308658 -0.000000 0.461939
v 1.308658 2.000000 0.461940
v 1.222214 -0.000000 0.415734
v 1.222214 2.000000 0.415735
v 1.146446 -0.000000 0.353553
v 1.146446 2.000000 0.353553
v 1.084265 -0.000000 0.277784
v 1.084265 2.000000 0.277785
v 1.038060 -0.000000 0.191341
v 1.038060 2.000000 0.191341
v 1.009607 -0.000000 0.097544
v 1.009607 2.000000 0.097544
v 0.117316 2.000000 0.000000
v 0.500000 2.000000 0.000000
v 0.961940 2.000000 0.000000
v 0.980785 2.000000 0.000000
v 1.038060 2.000000 0.000000
v 1.019215 2.000000 0.000000
v 1.117316 2.000000 0.000000
v 1.882683 2.000000 0.000000
v 0.029010 0.000000 -0.000000
v 0.074784 0.000000 -0.000000
v 0.925215 0.000000 -0.000000
v 0.990393 0.000000 -0.000000
v 1.029010 0.000000 -0.000000
v 1.009607 0.000000 -0.000000
v 1.990393 0.000000 -0.000000
v 1.000000 0.913127 0.000000
v 2.000000 1.582795 0.000000
v 0.000000 0.243460 -0.000000
v 1.000000 0.913127 0.000000
v 0.277874 0.000000 -0.000000
v 1.000000 0.847714 -0.000000
v 1.000000 0.847714 -0.000000
v 1.981577 2.000000 0.000000
vt 0.500000 0.500000
vt 0.500000 0.711928
vt 0.500000 0.728282
vt 0.500000 1.000000
vt 0.468750 1.000000
vt 0.468750 0.500000
vt 0.437500 1.000000
vt 0.437500 0.500000
vt 0.406250 1.000000
vt 0.406250 0.500000
vt 0.375000 1.000000
vt 0.375000 0.500000
vt 0.343750 1.000000
vt 0.343750 0.500000
vt 0.312500 1.000000
vt 0.312500 0.500000
vt 0.281250 1.000000
vt 0.281250 0.500000
vt 0.250000 1.000000
vt 0.250000 0.500000
vt 0.218750 1.000000
vt 0.218750 0.500000
vt 0.187500 1.000000
vt 0.187500 0.500000
vt 0.156250 1.000000
vt 0.156250 0.500000
vt 0.125000 1.000000
vt 0.125000 0.500000
vt 0.093750 1.000000
vt 0.093750 0.500000
vt 0.062500 1.000000
vt 0.062500 0.500000
vt 0.031250 1.000000
vt 0.031250 0.500000
vt 0.000000 1.000000
vt 0.000000 0.560865
vt 0.000000 0.500000
vt 0.750000 0.490000
vt 0.750000 0.476075
vt 0.750000 0.454103
vt 0.750000 0.356621
vt 0.750000 0.045897
vt 0.750000 0.014612
vt 0.750000 0.010000
vt 0.703178 0.014612
vt 0.658156 0.028269
vt 0.616663 0.050447
vt 0.580294 0.080294
vt 0.550447 0.116663
vt 0.528269 0.158156
vt 0.514611 0.203179
vt 0.510000 0.250000
vt 0.514612 0.296822
vt 0.528269 0.341844
vt 0.550447 0.383337
vt 0.580295 0.419706
vt 0.616663 0.449553
vt 0.658156 0.471731
vt 0.703179 0.485389
vt 0.500000 0.500000
vt 0.500000 0.895699
vt 0.500000 1.000000
vt 0.468750 1.000000
vt 0.468750 0.500000
vt 0.437500 1.000000
vt 0.437500 0.500000
vt 0.406250 1.000000
vt 0.406250 0.500000
vt 0.375000 1.000000
vt 0.375000 0.500000
vt 0.343750 1.000000
vt 0.343750 0.500000
vt 0.312500 1.000000
vt 0.312500 0.500000
vt 0.281250 1.000000
vt 0.281250 0.500000
vt 0.250000 1.000000
vt 0.250000 0.500000
vt 0.218750 1.000000
vt 0.218750 0.500000
vt 0.187500 1.000000
vt 0.187500 0.500000
vt 0.156250 1.000000
vt 0.156250 0.500000
vt 0.125000 1.000000
vt 0.125000 0.500000
vt 0.093750 1.000000
vt 0.093750 0.500000
vt 0.062500 1.000000
vt 0.062500 0.500000
vt 0.031250 1.000000
vt 0.031250 0.500000
vt 0.000000 1.000000
vt 0.000000 0.728282
vt 0.000000 0.711928
vt 0.000000 0.500000
vt 0.750000 0.490000
vt 0.750000 0.485388
vt 0.750000 0.476075
vt 0.750000 0.014612
vt 0.750000 0.010000
vt 0.703178 0.014612
vt 0.658156 0.028269
vt 0.616663 0.050447
vt 0.580294 0.080294
vt 0.550447 0.116663
vt 0.528269 0.158156
vt 0.514611 0.203179
vt 0.510000 0.250000
vt 0.514612 0.296822
vt 0.528269 0.341844
vt 0.550447 0.383337
vt 0.580295 0.419706
vt 0.616663 0.449553
vt 0.658156 0.471731
vt 0.703179 0.485389
vt 0.250000 0.480777
vt 0.250000 0.490000
vt 0.203179 0.485389
vt 0.158156 0.471731
vt 0.116663 0.449553
vt 0.080295 0.419706
vt 0.050447 0.383337
vt 0.028269 0.341844
vt 0.014612 0.296822
vt 0.010000 0.250000
vt 0.014611 0.203179
vt 0.028269 0.158156
vt 0.050447 0.116663
vt 0.080294 0.080294
vt 0.116663 0.050447
vt 0.158156 0.028269
vt 0.203178 0.014612
vt 0.250000 0.010000
vt 0.250000 0.066312
vt 0.250000 0.433688
vt 0.250000 0.471731
vt 0.250000 0.433688
vt 0.250000 0.490000
vt 0.203179 0.485389
vt 0.158156 0.471731
vt 0.116663 0.449553
vt 0.080295 0.419706
vt 0.050447 0.383337
vt 0.028269 0.341844
vt 0.014612 0.296822
vt 0.010000 0.250000
vt 0.014611 0.203179
vt 0.028269 0.158156
vt 0.050447 0.116663
vt 0.080294 0.080294
vt 0.116663 0.050447
vt 0.158156 0.028269
vt 0.203178 0.014612
vt 0.250000 0.010000
vt 0.250000 0.019223
vt 0.250000 0.028269
vt 0.250000 0.250000
vn 0.9952 0.0000 0.0980
vn 0.9569 -0.0000 0.2903
vn 0.8819 -0.0000 0.4714
vn 0.7730 -0.0000 0.6344
vn 0.6344 -0.0000 0.7730
vn 0.4714 -0.0000 0.8819
vn 0.2903 -0.0000 0.9569
vn 0.0980 -0.0000 0.9952
vn -0.0980 -0.0000 0.9952
vn -0.2903 -0.0000 0.9569
vn -0.4714 -0.0000 0.8819
vn -0.6344 -0.0000 0.7730
vn -0.7730 -0.0000 0.6344
vn -0.8819 -0.0000 0.4714
vn -0.9569 -0.0000 0.2903
vn -0.9952 -0.0000 0.0980
vn 0.0000 -1.0000 -0.0000
vn 0.0000 1.0000 0.0000
usemtl None
s off
f 3/1/1 89/2/1 87/3/1 4/4/1 6/5/1 5/6/1
f 5/6/2 6/5/2 8/7/2 7/8/2
f 7/8/3 8/7/3 10/9/3 9/10/3
f 9/10/4 10/9/4 12/11/4 11/12/4
f 11/12/5 12/11/5 14/13/5 13/14/5
f 13/14/6 14/13/6 16/15/6 15/16/6
f 15/16/7 16/15/7 18/17/7 17/18/7
f 17/18/8 18/17/8 20/19/8 19/20/8
f 19/20/9 20/19/9 22/21/9 21/22/9
f 21/22/10 22/21/10 24/23/10 23/24/10
f 23/24/11 24/23/11 26/25/11 25/26/11
f 25/26/12 26/25/12 28/27/12 27/28/12
f 27/28/13 28/27/13 30/29/13 29/30/13
f 29/30/14 30/29/14 32/31/14 31/32/14
f 31/32/15 32/31/15 34/33/15 33/34/15
f 33/34/16 34/33/16 2/35/16 86/36/16 1/37/16
f 1/38/17 77/39/17 78/40/17 88/41/17 79/42/17 80/43/17 3/44/17 5/45/17 7/46/17 9/47/17 11/48/17 13/49/17 15/50/17 17/51/17 19/52/17 21/53/17 23/54/17 25/55/17 27/56/17 29/57/17 31/58/17 33/59/17
f 37/60/1 85/61/1 38/62/1 40/63/1 39/64/1
f 39/64/2 40/63/2 42/65/2 41/66/2
f 41/66/3 42/65/3 44/67/3 43/68/3
f 43/68/4 44/67/4 46/69/4 45/70/4
f 45/70/5 46/69/5 48/71/5 47/72/5
f 47/72/6 48/71/6 50/73/6 49/74/6
f 49/74/7 50/73/7 52/75/7 51/76/7
f 51/76/8 52/75/8 54/77/8 53/78/8
f 53/78/9 54/77/9 56/79/9 55/80/9
f 55/80/10 56/79/10 58/81/10 57/82/10
f 57/82/11 58/81/11 60/83/11 59/84/11
f 59/84/12 60/83/12 62/85/12 61/86/12
f 61/86/13 62/85/13 64/87/13 63/88/13
f 63/88/14 64/87/14 66/89/14 65/90/14
f 65/90/15 66/89/15 68/91/15 67/92/15
f 67/92/16 68/91/16 36/93/16 84/94/16 90/95/16 35/96/16
f 35/97/17 82/98/17 81/99/17 83/100/17 37/101/17 39/102/17 41/103/17 43/104/17 45/105/17 47/106/17 49/107/17 51/108/17 53/109/17 55/110/17 57/111/17 59/112/17 61/113/17 63/114/17 65/115/17 67/116/17
f 74/117/18 36/118/18 68/119/18 66/120/18 64/121/18 62/122/18 60/123/18 58/124/18 56/125/18 54/126/18 52/127/18 50/128/18 48/129/18 46/130/18 44/131/18 42/132/18 40/133/18 38/134/18 76/135/18 75/136/18 73/137/18
f 78/40/18 79/42/18 88/41/18
f 69/138/18 2/139/18 34/140/18 32/141/18 30/142/18 28/143/18 26/144/18 24/145/18 22/146/18 20/147/18 18/148/18 16/149/18 14/150/18 12/151/18 10/152/18 8/153/18 6/154/18 4/155/18 72/156/18 71/157/18 70/158/18
l 1 2
l 35 36
l 4 3
l 91 76
l 38 37
l 3 87
l 38 91
o Cylinder.001_Cylinder.002
v 0.000000 2.000000 0.000000
v 0.000000 2.000000 0.050000
v 0.019215 2.195090 0.000000
v 0.019215 2.195090 0.050000
v 0.076120 2.382684 0.000000
v 0.076120 2.382684 0.050000
v 0.168530 2.555570 0.000000
v 0.168530 2.555570 0.050000
v 0.292893 2.707107 0.000000
v 0.292893 2.707107 0.050000
v 0.444430 2.831470 0.000000
v 0.444430 2.831470 0.050000
v 0.617317 2.923880 0.000000
v 0.617317 2.923880 0.050000
v 0.804910 2.980785 0.000000
v 0.804910 2.980785 0.050000
v 1.000000 3.000000 0.000000
v 1.000000 3.000000 0.050000
v 1.195090 2.980785 0.000000
v 1.195090 2.980785 0.050000
v 1.382683 2.923880 0.000000
v 1.382683 2.923880 0.050000
v 1.555570 2.831470 0.000000
v 1.555570 2.831470 0.050000
v 1.707107 2.707107 0.000000
v 1.707107 2.707107 0.050000
v 1.831470 2.555570 0.000000
v 1.831470 2.555570 0.050000
v 1.923880 2.382683 0.000000
v 1.923880 2.382683 0.050000
v 1.980785 2.195090 0.000000
v 1.980785 2.195090 0.050000
v 2.000000 2.000000 0.000000
v 2.000000 2.000000 0.050000
vt 1.000000 0.500000
vt 1.000000 1.000000
vt 0.968750 1.000000
vt 0.968750 0.500000
vt 0.937500 1.000000
vt 0.937500 0.500000
vt 0.906250 1.000000
vt 0.906250 0.500000
vt 0.875000 1.000000
vt 0.875000 0.500000
vt 0.843750 1.000000
vt 0.843750 0.500000
vt 0.812500 1.000000
vt 0.812500 0.500000
vt 0.781250 1.000000
vt 0.781250 0.500000
vt 0.750000 1.000000
vt 0.750000 0.500000
vt 0.718750 1.000000
vt 0.718750 0.500000
vt 0.687500 1.000000
vt 0.687500 0.500000
vt 0.656250 1.000000
vt 0.656250 0.500000
vt 0.625000 1.000000
vt 0.625000 0.500000
vt 0.593750 1.000000
vt 0.593750 0.500000
vt 0.562500 1.000000
vt 0.562500 0.500000
vt 0.531250 1.000000
vt 0.531250 0.500000
vt 0.500000 1.000000
vt 0.500000 0.500000
vt 0.296822 0.485388
vt 0.250000 0.490000
vt 0.250000 0.010000
vt 0.296822 0.014612
vt 0.341844 0.028269
vt 0.383337 0.050447
vt 0.419706 0.080294
vt 0.449553 0.116663
vt 0.471731 0.158156
vt 0.485388 0.203178
vt 0.490000 0.250000
vt 0.485388 0.296822
vt 0.471731 0.341844
vt 0.449553 0.383337
vt 0.419706 0.419706
vt 0.383337 0.449553
vt 0.341844 0.471731
vt 0.750000 0.010000
vt 0.750000 0.490000
vt 0.796822 0.485388
vt 0.841844 0.471731
vt 0.883337 0.449553
vt 0.919706 0.419706
vt 0.949553 0.383337
vt 0.971731 0.341844
vt 0.985388 0.296822
vt 0.990000 0.250000
vt 0.985388 0.203178
vt 0.971731 0.158156
vt 0.949553 0.116663
vt 0.919706 0.080294
vt 0.883337 0.050447
vt 0.841844 0.028269
vt 0.796822 0.014612
vt 0.503125 0.543462
vt 0.496875 0.543462
vt 0.496875 0.706538
vt 0.503125 0.706538
vn -0.9952 0.0980 0.0000
vn -0.9569 0.2903 0.0000
vn -0.8819 0.4714 0.0000
vn -0.7730 0.6344 0.0000
vn -0.6344 0.7730 0.0000
vn -0.4714 0.8819 0.0000
vn -0.2903 0.9569 0.0000
vn -0.0980 0.9952 0.0000
vn 0.0980 0.9952 0.0000
vn 0.2903 0.9569 0.0000
vn 0.4714 0.8819 0.0000
vn 0.6344 0.7730 0.0000
vn 0.7730 0.6344 0.0000
vn 0.8819 0.4714 0.0000
vn 0.9569 0.2903 0.0000
vn 0.9952 0.0980 0.0000
vn 0.0000 0.0000 1.0000
vn -0.0000 0.0000 -1.0000
vn -0.0000 -1.0000 0.0000
usemtl None
s off
f 92/159/19 93/160/19 95/161/19 94/162/19
f 94/162/20 95/161/20 97/163/20 96/164/20
f 96/164/21 97/163/21 99/165/21 98/166/21
f 98/166/22 99/165/22 101/167/22 100/168/22
f 100/168/23 101/167/23 103/169/23 102/170/23
f 102/170/24 103/169/24 105/171/24 104/172/24
f 104/172/25 105/171/25 107/173/25 106/174/25
f 106/174/26 107/173/26 109/175/26 108/176/26
f 108/176/27 109/175/27 111/177/27 110/178/27
f 110/178/28 111/177/28 113/179/28 112/180/28
f 112/180/29 113/179/29 115/181/29 114/182/29
f 114/182/30 115/181/30 117/183/30 116/184/30
f 116/184/31 117/183/31 119/185/31 118/186/31
f 118/186/32 119/185/32 121/187/32 120/188/32
f 120/188/33 121/187/33 123/189/33 122/190/33
f 122/190/34 123/189/34 125/191/34 124/192/34
f 95/193/35 93/194/35 125/195/35 123/196/35 121/197/35 119/198/35 117/199/35 115/200/35 113/201/35 111/202/35 109/203/35 107/204/35 105/205/35 103/206/35 101/207/35 99/208/35 97/209/35
f 124/210/36 92/211/36 94/212/36 96/213/36 98/214/36 100/215/36 102/216/36 104/217/36 106/218/36 108/219/36 110/220/36 112/221/36 114/222/36 116/223/36 118/224/36 120/225/36 122/226/36
f 93/227/37 92/228/37 124/229/37 125/230/37
