# Blender v2.82 (sub 7) OBJ File: ''
# www.blender.org
mtllib constructionyard.mtl
o Cube
v 2.000000 2.000000 0.010000
v 3.000000 2.000000 0.010000
v 2.000000 0.000000 0.010000
v 3.000000 0.000000 0.010000
v 2.134283 1.731434 0.610000
v 2.000000 2.000000 0.529430
v 2.865717 1.731434 0.610000
v 3.000000 2.000000 0.529430
v 2.134283 0.268566 0.610000
v 2.000000 0.000000 0.529430
v 2.865717 0.268566 0.610000
v 3.000000 0.000000 0.529430
vt 0.375000 0.750000
vt 0.591429 0.750000
vt 0.591429 1.000000
vt 0.375000 1.000000
vt 0.375000 0.000000
vt 0.591429 0.000000
vt 0.591429 0.250000
vt 0.375000 0.250000
vt 0.125000 0.500000
vt 0.375000 0.500000
vt 0.125000 0.750000
vt 0.658571 0.533571
vt 0.841429 0.533571
vt 0.841429 0.716429
vt 0.658571 0.716429
vt 0.591429 0.500000
vt 0.875000 0.750000
vt 0.625000 0.750000
vt 0.875000 0.500000
vt 0.625000 0.500000
vn 1.0000 0.0000 0.0000
vn 0.0000 -1.0000 0.0000
vn 0.0000 0.0000 -1.0000
vn 0.0000 0.0000 1.0000
vn 0.0000 1.0000 0.0000
vn 0.5145 0.0000 0.8575
vn 0.0000 0.2873 0.9578
vn 0.0000 -0.2873 0.9578
vn -0.5145 0.0000 0.8575
vn -1.0000 0.0000 0.0000
usemtl Material
s off
f 2/1/1 8/2/1 12/3/1 4/4/1
f 4/5/2 12/6/2 10/7/2 3/8/2
f 3/9/3 1/10/3 2/1/3 4/11/3
f 5/12/4 9/13/4 11/14/4 7/15/4
f 1/10/5 6/16/5 8/2/5 2/1/5
f 7/15/6 11/14/6 12/17/6 8/18/6
f 5/12/7 7/15/7 8/2/7 6/16/7
f 11/14/8 9/13/8 10/19/8 12/17/8
f 9/13/9 5/12/9 6/20/9 10/19/9
f 3/8/10 10/7/10 6/16/10 1/10/10
o Cylinder
v 0.072882 2.000000 0.066056
v 0.000000 1.933944 0.000000
v 1.927118 2.000000 0.066057
v 2.000000 1.933944 0.000000
v 1.915685 2.000000 0.182142
v 1.980785 1.933944 0.195091
v 1.862556 2.000000 0.357283
v 1.923879 1.933944 0.382684
v 1.776280 2.000000 0.518695
v 1.831469 1.933944 0.555571
v 1.660172 2.000000 0.660173
v 1.707106 1.933944 0.707107
v 1.518693 2.000000 0.776281
v 1.555570 1.933944 0.831470
v 1.357282 2.000000 0.862557
v 1.382683 1.933944 0.923880
v 1.182140 2.000000 0.915685
v 1.195089 1.933944 0.980786
v 0.999999 2.000000 0.933624
v 0.999999 1.933944 1.000000
v 0.817858 2.000000 0.915685
v 0.804909 1.933944 0.980785
v 0.642716 2.000000 0.862556
v 0.617316 1.933944 0.923879
v 0.481305 2.000000 0.776280
v 0.444429 1.933944 0.831469
v 0.339827 2.000000 0.660171
v 0.292892 1.933944 0.707106
v 0.223719 2.000000 0.518693
v 0.168530 1.933944 0.555569
v 0.137443 2.000000 0.357281
v 0.076120 1.933944 0.382682
v 0.084315 2.000000 0.182140
v 0.019214 1.933944 0.195089
v 0.000000 0.072310 -0.000000
v 0.079781 0.000000 0.072310
v 1.920218 0.000000 0.072310
v 2.000000 0.072310 0.000000
v 1.980785 0.072310 0.195091
v 1.909522 0.000000 0.180915
v 1.923879 0.072310 0.382684
v 1.856750 0.000000 0.354878
v 1.831469 0.072310 0.555571
v 1.771055 0.000000 0.515203
v 1.707106 0.072310 0.707107
v 1.655728 0.000000 0.655729
v 1.555570 0.072310 0.831470
v 1.515202 0.000000 0.771056
v 1.382683 0.072310 0.923880
v 1.354877 -0.000000 0.856751
v 1.195089 0.072310 0.980785
v 1.180914 -0.000000 0.909522
v 0.999999 0.072310 1.000000
v 0.999999 -0.000000 0.927340
v 0.804909 0.072310 0.980785
v 0.819084 -0.000000 0.909522
v 0.617316 0.072310 0.923879
v 0.645121 -0.000000 0.856750
v 0.444429 0.072310 0.831469
v 0.484796 0.000000 0.771055
v 0.292892 0.072310 0.707106
v 0.344271 0.000000 0.655728
v 0.168530 0.072310 0.555569
v 0.228944 0.000000 0.515202
v 0.076120 0.072310 0.382682
v 0.143249 0.000000 0.354876
v 0.019214 0.072310 0.195089
v 0.090478 0.000000 0.180914
vt 0.437500 0.518077
vt 0.437500 0.983486
vt 0.406250 0.983486
vt 0.406250 0.518077
vt 0.375000 0.983486
vt 0.375000 0.518077
vt 0.343750 0.983486
vt 0.343750 0.518077
vt 0.312500 0.983486
vt 0.312500 0.518077
vt 0.281250 0.983486
vt 0.281250 0.518077
vt 0.250000 0.983486
vt 0.250000 0.518077
vt 0.218750 0.983486
vt 0.218750 0.518077
vt 0.187500 0.983486
vt 0.187500 0.518077
vt 0.156250 0.983486
vt 0.156250 0.518077
vt 0.156250 0.983486
vt 0.125000 0.983486
vt 0.125000 0.518077
vt 0.093750 0.983486
vt 0.093750 0.518077
vt 0.062500 0.983486
vt 0.062500 0.518077
vt 0.031250 0.983486
vt 0.031250 0.518077
vt 0.234146 0.027492
vt 0.234147 0.472508
vt 0.206287 0.469764
vt 0.164253 0.457014
vt 0.125514 0.436307
vt 0.091559 0.408441
vt 0.063693 0.374487
vt 0.042987 0.335748
vt 0.030236 0.293714
vt 0.025930 0.250000
vt 0.030236 0.206286
vt 0.042986 0.164252
vt 0.063693 0.125514
vt 0.091559 0.091559
vt 0.125513 0.063693
vt 0.164252 0.042987
vt 0.206286 0.030236
vt 0.818213 0.546875
vt 0.681328 0.546875
vt 0.681328 0.703125
vt 0.818213 0.703125
vt 0.732646 0.470852
vt 0.732646 0.029148
vt 0.706580 0.031715
vt 0.664829 0.044380
vt 0.626351 0.064947
vt 0.592625 0.092625
vt 0.564946 0.126351
vt 0.544380 0.164830
vt 0.531715 0.206581
vt 0.527438 0.250000
vt 0.531715 0.293420
vt 0.544380 0.335171
vt 0.564947 0.373649
vt 0.592625 0.407375
vt 0.626352 0.435053
vt 0.664830 0.455620
vt 0.706581 0.468285
vt 0.468750 0.518077
vt 0.468750 0.983486
vt 0.500000 0.983486
vt 0.488382 1.000000
vt 0.469787 1.000000
vt 0.467713 1.000000
vt 0.438537 1.000000
vt 0.436463 1.000000
vt 0.407287 1.000000
vt 0.405213 1.000000
vt 0.376037 1.000000
vt 0.373963 1.000000
vt 0.344787 1.000000
vt 0.342713 1.000000
vt 0.313537 1.000000
vt 0.311463 1.000000
vt 0.282287 1.000000
vt 0.280213 1.000000
vt 0.251037 1.000000
vt 0.248963 1.000000
vt 0.219787 1.000000
vt 0.217713 1.000000
vt 0.188537 1.000000
vt 0.186463 1.000000
vt 0.157287 1.000000
vt 0.155213 1.000000
vt 0.126037 1.000000
vt 0.123963 1.000000
vt 0.094787 1.000000
vt 0.092713 1.000000
vt 0.063537 1.000000
vt 0.061463 1.000000
vt 0.032287 1.000000
vt 0.000000 0.983486
vt 0.030213 1.000000
vt 0.011618 1.000000
vt 0.676471 0.552569
vt 0.676471 0.697431
vt 0.500000 0.518077
vt 0.469885 0.500000
vt 0.487282 0.500000
vt 0.438635 0.500000
vt 0.467615 0.500000
vt 0.407385 0.500000
vt 0.436365 0.500000
vt 0.376135 0.500000
vt 0.405115 0.500000
vt 0.344885 0.500000
vt 0.373865 0.500000
vt 0.313635 0.500000
vt 0.342615 0.500000
vt 0.282385 0.500000
vt 0.311365 0.500000
vt 0.251135 0.500000
vt 0.280115 0.500000
vt 0.219885 0.500000
vt 0.248865 0.500000
vt 0.188635 0.500000
vt 0.217615 0.500000
vt 0.157385 0.500000
vt 0.186365 0.500000
vt 0.126135 0.500000
vt 0.155115 0.500000
vt 0.094885 0.500000
vt 0.123865 0.500000
vt 0.063635 0.500000
vt 0.092615 0.500000
vt 0.032385 0.500000
vt 0.061365 0.500000
vt 0.000000 0.518077
vt 0.012718 0.500000
vt 0.030115 0.500000
vt 0.823529 0.696892
vt 0.823529 0.553108
vn 0.8819 -0.0000 0.4714
vn 0.7730 -0.0000 0.6344
vn 0.6344 -0.0000 0.7730
vn 0.4714 -0.0000 0.8819
vn 0.2903 -0.0000 0.9569
vn 0.0980 -0.0000 0.9952
vn -0.0980 -0.0000 0.9952
vn -0.2903 -0.0000 0.9569
vn -0.4714 -0.0000 0.8819
vn -0.6344 -0.0000 0.7730
vn -0.7730 -0.0000 0.6344
vn -0.8819 -0.0000 0.4714
vn -0.9569 -0.0000 0.2903
vn 0.0000 1.0000 -0.0000
vn 0.0000 0.0000 -1.0000
vn 0.0000 -1.0000 -0.0000
vn 0.9569 -0.0000 0.2903
vn 0.7037 0.7071 0.0693
vn 0.6767 0.7071 0.2053
vn 0.6236 0.7071 0.3333
vn 0.5466 0.7071 0.4486
vn 0.4486 0.7071 0.5466
vn 0.3333 0.7071 0.6236
vn 0.2053 0.7071 0.6767
vn 0.0693 0.7071 0.7037
vn -0.0693 0.7071 0.7037
vn -0.2053 0.7071 0.6767
vn -0.3333 0.7071 0.6236
vn -0.4486 0.7071 0.5466
vn -0.5466 0.7071 0.4486
vn -0.6236 0.7071 0.3333
vn -0.6767 0.7071 0.2053
vn -0.7037 0.7071 0.0693
vn 0.0000 0.7071 -0.7071
vn 0.9952 0.0000 0.0980
vn 0.7037 -0.7071 0.0693
vn 0.6767 -0.7071 0.2053
vn 0.6236 -0.7071 0.3333
vn 0.5466 -0.7071 0.4486
vn 0.4486 -0.7071 0.5466
vn 0.3333 -0.7071 0.6236
vn 0.2053 -0.7071 0.6767
vn 0.0693 -0.7071 0.7037
vn -0.0693 -0.7071 0.7037
vn -0.2053 -0.7071 0.6767
vn -0.3333 -0.7071 0.6236
vn -0.4486 -0.7071 0.5466
vn -0.5466 -0.7071 0.4486
vn -0.6236 -0.7071 0.3333
vn -0.6767 -0.7071 0.2053
vn -0.7037 -0.7071 0.0693
vn 0.0000 -0.7071 -0.7071
vn -0.9952 -0.0000 0.0980
usemtl None
s off
f 53/21/11 20/22/11 22/23/11 55/24/11
f 55/24/12 22/23/12 24/25/12 57/26/12
f 57/26/13 24/25/13 26/27/13 59/28/13
f 59/28/14 26/27/14 28/29/14 61/30/14
f 61/30/15 28/29/15 30/31/15 63/32/15
f 63/32/16 30/31/16 32/33/16 65/34/16
f 65/34/17 32/33/17 34/35/17 67/36/17
f 67/36/18 34/35/18 36/37/18 69/38/18
f 69/38/19 36/37/19 38/39/19 71/40/19
f 71/40/20 38/41/20 40/42/20 73/43/20
f 73/43/21 40/42/21 42/44/21 75/45/21
f 75/45/22 42/44/22 44/46/22 77/47/22
f 77/47/23 44/46/23 46/48/23 79/49/23
f 15/50/24 13/51/24 45/52/24 43/53/24 41/54/24 39/55/24 37/56/24 35/57/24 33/58/24 31/59/24 29/60/24 27/61/24 25/62/24 23/63/24 21/64/24 19/65/24 17/66/24
f 47/67/25 14/68/25 16/69/25 50/70/25
f 48/71/26 49/72/26 52/73/26 54/74/26 56/75/26 58/76/26 60/77/26 62/78/26 64/79/26 66/80/26 68/81/26 70/82/26 72/83/26 74/84/26 76/85/26 78/86/26 80/87/26
f 51/88/27 18/89/27 20/22/27 53/21/27
f 18/89/28 16/90/28 15/91/28 17/92/28
f 20/22/29 18/89/29 17/93/29 19/94/29
f 22/23/30 20/22/30 19/95/30 21/96/30
f 24/25/31 22/23/31 21/97/31 23/98/31
f 26/27/32 24/25/32 23/99/32 25/100/32
f 28/29/33 26/27/33 25/101/33 27/102/33
f 30/31/34 28/29/34 27/103/34 29/104/34
f 32/33/35 30/31/35 29/105/35 31/106/35
f 34/35/36 32/33/36 31/107/36 33/108/36
f 36/37/37 34/35/37 33/109/37 35/110/37
f 38/39/38 36/37/38 35/111/38 37/112/38
f 40/42/39 38/41/39 37/113/39 39/114/39
f 42/44/40 40/42/40 39/115/40 41/116/40
f 44/46/41 42/44/41 41/117/41 43/118/41
f 46/48/42 44/46/42 43/119/42 45/120/42
f 14/121/43 46/48/43 45/122/43 13/123/43
f 16/69/44 14/68/44 13/124/44 15/125/44
f 50/126/45 16/90/45 18/89/45 51/88/45
f 50/126/46 51/88/46 52/127/46 49/128/46
f 51/88/47 53/21/47 54/129/47 52/130/47
f 53/21/48 55/24/48 56/131/48 54/132/48
f 55/24/49 57/26/49 58/133/49 56/134/49
f 57/26/50 59/28/50 60/135/50 58/136/50
f 59/28/51 61/30/51 62/137/51 60/138/51
f 61/30/52 63/32/52 64/139/52 62/140/52
f 63/32/53 65/34/53 66/141/53 64/142/53
f 65/34/54 67/36/54 68/143/54 66/144/54
f 67/36/55 69/38/55 70/145/55 68/146/55
f 69/38/56 71/40/56 72/147/56 70/148/56
f 71/40/57 73/43/57 74/149/57 72/150/57
f 73/43/58 75/45/58 76/151/58 74/152/58
f 75/45/59 77/47/59 78/153/59 76/154/59
f 77/47/60 79/49/60 80/155/60 78/156/60
f 79/49/61 47/157/61 48/158/61 80/159/61
f 47/67/62 50/70/62 49/160/62 48/161/62
f 79/49/63 46/48/63 14/121/63 47/157/63
