# Blender v2.82 (sub 7) OBJ File: 'turret.blend'
# www.blender.org
mtllib turret.mtl
o Cube
v 0.154548 0.154548 0.451760
v 0.154548 0.845452 0.451760
v 0.845452 0.154548 0.451760
v 0.845452 0.845452 0.451760
v 0.000000 0.845452 0.169090
v 0.154548 0.845452 0.200000
v 0.154548 1.000000 0.169090
v 0.154548 0.845452 0.000000
v 0.000000 0.845452 0.030910
v 0.154548 1.000000 0.030910
v 0.845452 1.000000 0.169090
v 0.845452 0.845452 0.200000
v 1.000000 0.845452 0.169090
v 0.845452 1.000000 0.030910
v 1.000000 0.845452 0.030910
v 0.845452 0.845452 0.000000
v 0.000000 0.154548 0.169090
v 0.154548 0.000000 0.169090
v 0.154548 0.154548 0.200000
v 0.154548 0.000000 0.030910
v 0.000000 0.154548 0.030910
v 0.154548 0.154548 0.000000
v 0.845452 0.000000 0.169090
v 1.000000 0.154548 0.169090
v 0.845452 0.154548 0.200000
v 0.845452 0.154548 0.000000
v 1.000000 0.154548 0.030910
v 0.845452 0.000000 0.030910
vt 0.163637 0.538637
vt 0.336363 0.538637
vt 0.336363 0.711363
vt 0.163637 0.711363
vt 0.413637 0.038637
vt 0.586363 0.038637
vt 0.586363 0.211363
vt 0.413637 0.211363
vt 0.663637 0.538637
vt 0.836363 0.538637
vt 0.836363 0.711363
vt 0.663637 0.711363
vt 0.413637 0.788637
vt 0.586363 0.788637
vt 0.586363 0.961363
vt 0.413637 0.961363
vt 0.663637 0.538637
vt 0.836363 0.538637
vt 0.413637 0.538637
vt 0.586363 0.538637
vt 0.586363 0.711363
vt 0.413637 0.711363
vt 0.586363 0.461363
vt 0.625000 0.461363
vt 0.586363 0.500000
vt 0.336363 0.500000
vt 0.375000 0.538637
vt 0.625000 0.711363
vt 0.586363 0.750000
vt 0.413637 0.750000
vt 0.375000 0.711363
vt 0.586363 0.288637
vt 0.586363 0.250000
vt 0.625000 0.288637
vt 0.413637 0.250000
vt 0.375000 0.211363
vt 0.586363 0.000000
vt 0.625000 0.038637
vt 0.163637 0.750000
vt 0.125000 0.711363
vt 0.125000 0.538637
vt 0.163637 0.500000
vt 0.413637 0.461363
vt 0.586363 1.000000
vt 0.413637 1.000000
vt 0.413637 0.288637
vt 0.663637 0.711363
vt 0.836363 0.711363
vt 0.836363 0.750000
vt 0.663637 0.750000
vt 0.336363 0.750000
vt 0.875000 0.538637
vt 0.875000 0.711363
vt 0.663637 0.500000
vt 0.836363 0.500000
vn 0.0000 0.0000 -1.0000
vn 0.0000 -1.0000 0.0000
vn 0.0000 0.0000 1.0000
vn 1.0000 0.0000 0.0000
vn -1.0000 0.0000 0.0000
vn 0.0000 1.0000 0.0000
vn -0.1924 0.1924 0.9623
vn -0.1924 0.1924 -0.9623
vn 0.1924 0.1924 0.9623
vn 0.1924 0.1925 -0.9623
vn -0.1925 -0.1925 0.9623
vn -0.1925 -0.1925 -0.9623
vn 0.1925 -0.1925 0.9623
vn 0.1925 -0.1925 -0.9623
vn 0.0000 -0.1961 -0.9806
vn -0.1961 0.0000 -0.9806
vn -0.7071 0.7071 0.0000
vn 0.7071 -0.7071 0.0000
vn 0.7071 0.7071 0.0000
vn -0.7071 -0.7071 0.0000
vn 0.1961 0.0000 0.9806
vn 0.0000 0.1961 0.9806
vn 0.1961 0.0000 -0.9806
vn 0.0000 -0.1961 0.9806
vn -0.1961 0.0000 0.9806
vn 0.0000 0.1961 -0.9806
usemtl Material
s off
f 22/1/1 8/2/1 16/3/1 26/4/1
f 28/5/2 23/6/2 18/7/2 20/8/2
f 2/9/3 1/10/3 3/11/3 4/12/3
f 15/13/4 13/14/4 24/15/4 27/16/4
f 6/17/5 19/18/5 1/10/5 2/9/5
f 10/19/6 7/20/6 11/21/6 14/22/6
f 5/23/7 6/24/7 7/25/7
f 8/2/8 9/26/8 10/27/8
f 11/21/9 12/28/9 13/29/9
f 14/22/10 15/30/10 16/31/10
f 17/32/11 18/33/11 19/34/11
f 20/8/12 21/35/12 22/36/12
f 23/6/13 24/37/13 25/38/13
f 26/4/14 27/39/14 28/40/14
f 22/1/15 26/4/15 28/40/15 20/41/15
f 8/2/16 22/1/16 21/42/16 9/26/16
f 7/20/17 10/19/17 9/43/17 5/23/17
f 27/16/18 24/15/18 23/44/18 28/45/18
f 13/14/19 15/13/19 14/22/19 11/21/19
f 17/32/20 21/46/20 20/8/20 18/7/20
f 12/47/21 25/48/21 24/49/21 13/50/21
f 6/17/22 12/47/22 11/21/22 7/20/22
f 26/4/23 16/3/23 15/51/23 27/39/23
f 25/48/24 19/18/24 18/52/24 23/53/24
f 19/18/25 6/17/25 5/54/25 17/55/25
f 16/3/26 8/2/26 10/19/26 14/22/26
f 21/46/5 17/32/5 5/23/5 9/43/5
f 19/18/2 25/48/2 3/11/2 1/10/2
f 12/47/6 6/17/6 2/9/6 4/12/6
f 25/48/4 12/47/4 4/12/4 3/11/4
o Cylinder
v 0.250000 0.500000 0.425524
v 0.250000 0.500000 0.625524
v 0.254804 0.548773 0.425524
v 0.254804 0.548773 0.625524
v 0.269030 0.595671 0.425524
v 0.269030 0.595671 0.625524
v 0.292133 0.638893 0.425524
v 0.292133 0.638893 0.625524
v 0.323223 0.676777 0.425524
v 0.323223 0.676777 0.625524
v 0.361107 0.707867 0.425524
v 0.361107 0.707867 0.625524
v 0.404329 0.730970 0.425524
v 0.404329 0.730970 0.625524
v 0.451227 0.745196 0.425524
v 0.451227 0.745196 0.625524
v 0.500000 0.750000 0.425524
v 0.500000 0.750000 0.625524
v 0.548773 0.745196 0.425524
v 0.548773 0.745196 0.625524
v 0.595671 0.730970 0.425524
v 0.595671 0.730970 0.625524
v 0.638893 0.707867 0.425524
v 0.638893 0.707867 0.625524
v 0.676777 0.676777 0.425524
v 0.676777 0.676777 0.625524
v 0.707867 0.638893 0.425524
v 0.707867 0.638893 0.625524
v 0.730970 0.595671 0.425524
v 0.730970 0.595671 0.625524
v 0.745196 0.548773 0.425524
v 0.745196 0.548773 0.625524
v 0.750000 0.500000 0.425524
v 0.750000 0.500000 0.625524
v 0.745196 0.451227 0.425524
v 0.745196 0.451227 0.625524
v 0.730970 0.404329 0.425524
v 0.730970 0.404329 0.625524
v 0.707867 0.361107 0.425524
v 0.707867 0.361107 0.625524
v 0.676777 0.323223 0.425524
v 0.676777 0.323223 0.625524
v 0.638892 0.292132 0.425524
v 0.638892 0.292132 0.625524
v 0.595671 0.269030 0.425524
v 0.595671 0.269030 0.625524
v 0.548772 0.254804 0.425524
v 0.548772 0.254804 0.625524
v 0.500000 0.250000 0.425524
v 0.500000 0.250000 0.625524
v 0.451227 0.254804 0.425524
v 0.451227 0.254804 0.625524
v 0.404329 0.269030 0.425524
v 0.404329 0.269030 0.625524
v 0.361107 0.292133 0.425524
v 0.361107 0.292133 0.625524
v 0.323223 0.323224 0.425524
v 0.323223 0.323224 0.625524
v 0.292132 0.361108 0.425524
v 0.292132 0.361108 0.625524
v 0.269030 0.404329 0.425524
v 0.269030 0.404329 0.625524
v 0.254804 0.451228 0.425524
v 0.254804 0.451228 0.625524
vt 1.000000 0.500000
vt 1.000000 1.000000
vt 0.968750 1.000000
vt 0.968750 0.500000
vt 0.937500 1.000000
vt 0.937500 0.500000
vt 0.906250 1.000000
vt 0.906250 0.500000
vt 0.875000 1.000000
vt 0.875000 0.500000
vt 0.843750 1.000000
vt 0.843750 0.500000
vt 0.812500 1.000000
vt 0.812500 0.500000
vt 0.781250 1.000000
vt 0.781250 0.500000
vt 0.750000 1.000000
vt 0.750000 0.500000
vt 0.718750 1.000000
vt 0.718750 0.500000
vt 0.687500 1.000000
vt 0.687500 0.500000
vt 0.656250 1.000000
vt 0.656250 0.500000
vt 0.625000 1.000000
vt 0.625000 0.500000
vt 0.593750 1.000000
vt 0.593750 0.500000
vt 0.562500 1.000000
vt 0.562500 0.500000
vt 0.531250 1.000000
vt 0.531250 0.500000
vt 0.500000 1.000000
vt 0.500000 0.500000
vt 0.468750 1.000000
vt 0.468750 0.500000
vt 0.437500 1.000000
vt 0.437500 0.500000
vt 0.406250 1.000000
vt 0.406250 0.500000
vt 0.375000 1.000000
vt 0.375000 0.500000
vt 0.343750 1.000000
vt 0.343750 0.500000
vt 0.312500 1.000000
vt 0.312500 0.500000
vt 0.281250 1.000000
vt 0.281250 0.500000
vt 0.250000 1.000000
vt 0.250000 0.500000
vt 0.218750 1.000000
vt 0.218750 0.500000
vt 0.187500 1.000000
vt 0.187500 0.500000
vt 0.156250 1.000000
vt 0.156250 0.500000
vt 0.125000 1.000000
vt 0.125000 0.500000
vt 0.093750 1.000000
vt 0.093750 0.500000
vt 0.062500 1.000000
vt 0.062500 0.500000
vt 0.296822 0.485388
vt 0.250000 0.490000
vt 0.203179 0.485389
vt 0.158156 0.471731
vt 0.116663 0.449553
vt 0.080295 0.419706
vt 0.050447 0.383337
vt 0.028269 0.341844
vt 0.014612 0.296822
vt 0.010000 0.250000
vt 0.014611 0.203179
vt 0.028269 0.158156
vt 0.050447 0.116663
vt 0.080294 0.080294
vt 0.116663 0.050447
vt 0.158156 0.028269
vt 0.203178 0.014612
vt 0.250000 0.010000
vt 0.296822 0.014612
vt 0.341844 0.028269
vt 0.383337 0.050447
vt 0.419706 0.080294
vt 0.449553 0.116663
vt 0.471731 0.158156
vt 0.485388 0.203178
vt 0.490000 0.250000
vt 0.485388 0.296822
vt 0.471731 0.341844
vt 0.449553 0.383337
vt 0.419706 0.419706
vt 0.383337 0.449553
vt 0.341844 0.471731
vt 0.031250 1.000000
vt 0.031250 0.500000
vt 0.000000 1.000000
vt 0.000000 0.500000
vt 0.750000 0.490000
vt 0.796822 0.485388
vt 0.841844 0.471731
vt 0.883337 0.449553
vt 0.919706 0.419706
vt 0.949553 0.383337
vt 0.971731 0.341844
vt 0.985388 0.296822
vt 0.990000 0.250000
vt 0.985388 0.203178
vt 0.971731 0.158156
vt 0.949553 0.116663
vt 0.919706 0.080294
vt 0.883337 0.050447
vt 0.841844 0.028269
vt 0.796822 0.014612
vt 0.750000 0.010000
vt 0.703178 0.014612
vt 0.658156 0.028269
vt 0.616663 0.050447
vt 0.580294 0.080294
vt 0.550447 0.116663
vt 0.528269 0.158156
vt 0.514611 0.203179
vt 0.510000 0.250000
vt 0.514612 0.296822
vt 0.528269 0.341844
vt 0.550447 0.383337
vt 0.580295 0.419706
vt 0.616663 0.449553
vt 0.658156 0.471731
vt 0.703179 0.485389
vn -0.9952 0.0980 0.0000
vn -0.9569 0.2903 0.0000
vn -0.8819 0.4714 0.0000
vn -0.7730 0.6344 0.0000
vn -0.6344 0.7730 0.0000
vn -0.4714 0.8819 0.0000
vn -0.2903 0.9569 0.0000
vn -0.0980 0.9952 0.0000
vn 0.0980 0.9952 0.0000
vn 0.2903 0.9569 0.0000
vn 0.4714 0.8819 0.0000
vn 0.6344 0.7730 0.0000
vn 0.7730 0.6344 0.0000
vn 0.8819 0.4714 0.0000
vn 0.9569 0.2903 0.0000
vn 0.9952 0.0980 0.0000
vn 0.9952 -0.0980 0.0000
vn 0.9569 -0.2903 0.0000
vn 0.8819 -0.4714 0.0000
vn 0.7730 -0.6344 0.0000
vn 0.6344 -0.7730 0.0000
vn 0.4714 -0.8819 0.0000
vn 0.2903 -0.9569 0.0000
vn 0.0980 -0.9952 0.0000
vn -0.0980 -0.9952 0.0000
vn -0.2903 -0.9569 0.0000
vn -0.4714 -0.8819 0.0000
vn -0.6344 -0.7730 0.0000
vn -0.7730 -0.6344 0.0000
vn -0.8819 -0.4714 0.0000
vn 0.0000 0.0000 1.0000
vn -0.9569 -0.2903 0.0000
vn -0.9952 -0.0980 0.0000
vn 0.0000 0.0000 -1.0000
usemtl None
s off
f 29/56/27 30/57/27 32/58/27 31/59/27
f 31/59/28 32/58/28 34/60/28 33/61/28
f 33/61/29 34/60/29 36/62/29 35/63/29
f 35/63/30 36/62/30 38/64/30 37/65/30
f 37/65/31 38/64/31 40/66/31 39/67/31
f 39/67/32 40/66/32 42/68/32 41/69/32
f 41/69/33 42/68/33 44/70/33 43/71/33
f 43/71/34 44/70/34 46/72/34 45/73/34
f 45/73/35 46/72/35 48/74/35 47/75/35
f 47/75/36 48/74/36 50/76/36 49/77/36
f 49/77/37 50/76/37 52/78/37 51/79/37
f 51/79/38 52/78/38 54/80/38 53/81/38
f 53/81/39 54/80/39 56/82/39 55/83/39
f 55/83/40 56/82/40 58/84/40 57/85/40
f 57/85/41 58/84/41 60/86/41 59/87/41
f 59/87/42 60/86/42 62/88/42 61/89/42
f 61/89/43 62/88/43 64/90/43 63/91/43
f 63/91/44 64/90/44 66/92/44 65/93/44
f 65/93/45 66/92/45 68/94/45 67/95/45
f 67/95/46 68/94/46 70/96/46 69/97/46
f 69/97/47 70/96/47 72/98/47 71/99/47
f 71/99/48 72/98/48 74/100/48 73/101/48
f 73/101/49 74/100/49 76/102/49 75/103/49
f 75/103/50 76/102/50 78/104/50 77/105/50
f 77/105/51 78/104/51 80/106/51 79/107/51
f 79/107/52 80/106/52 82/108/52 81/109/52
f 81/109/53 82/108/53 84/110/53 83/111/53
f 83/111/54 84/110/54 86/112/54 85/113/54
f 85/113/55 86/112/55 88/114/55 87/115/55
f 87/115/56 88/114/56 90/116/56 89/117/56
f 32/118/57 30/119/57 92/120/57 90/121/57 88/122/57 86/123/57 84/124/57 82/125/57 80/126/57 78/127/57 76/128/57 74/129/57 72/130/57 70/131/57 68/132/57 66/133/57 64/134/57 62/135/57 60/136/57 58/137/57 56/138/57 54/139/57 52/140/57 50/141/57 48/142/57 46/143/57 44/144/57 42/145/57 40/146/57 38/147/57 36/148/57 34/149/57
f 89/117/58 90/116/58 92/150/58 91/151/58
f 91/151/59 92/150/59 30/152/59 29/153/59
f 29/154/60 31/155/60 33/156/60 35/157/60 37/158/60 39/159/60 41/160/60 43/161/60 45/162/60 47/163/60 49/164/60 51/165/60 53/166/60 55/167/60 57/168/60 59/169/60 61/170/60 63/171/60 65/172/60 67/173/60 69/174/60 71/175/60 73/176/60 75/177/60 77/178/60 79/179/60 81/180/60 83/181/60 85/182/60 87/183/60 89/184/60 91/185/60
o Cylinder.001
v 0.400000 0.427085 0.550614
v 0.400000 0.927085 0.550614
v 0.401921 0.427085 0.531105
v 0.401921 0.927085 0.531105
v 0.407612 0.427085 0.512346
v 0.407612 0.927085 0.512346
v 0.416853 0.427085 0.495057
v 0.416853 0.927085 0.495057
v 0.429289 0.427085 0.479904
v 0.429289 0.927085 0.479904
v 0.444443 0.427085 0.467467
v 0.444443 0.927085 0.467468
v 0.461732 0.427085 0.458226
v 0.461732 0.927085 0.458227
v 0.480491 0.427085 0.452536
v 0.480491 0.927085 0.452536
v 0.500000 0.427085 0.450614
v 0.500000 0.927085 0.450614
v 0.519509 0.427085 0.452536
v 0.519509 0.927085 0.452536
v 0.538268 0.427085 0.458226
v 0.538268 0.927085 0.458227
v 0.555557 0.427085 0.467467
v 0.555557 0.927085 0.467468
v 0.570711 0.427085 0.479904
v 0.570711 0.927085 0.479904
v 0.583147 0.427085 0.495057
v 0.583147 0.927085 0.495057
v 0.592388 0.427085 0.512346
v 0.592388 0.927085 0.512346
v 0.598079 0.427085 0.531105
v 0.598079 0.927085 0.531105
v 0.600000 0.427085 0.550614
v 0.600000 0.927085 0.550615
v 0.598079 0.427085 0.570124
v 0.598079 0.927085 0.570124
v 0.592388 0.427085 0.588883
v 0.592388 0.927085 0.588883
v 0.583147 0.427085 0.606172
v 0.583147 0.927085 0.606172
v 0.570711 0.427085 0.621325
v 0.570711 0.927085 0.621325
v 0.555557 0.427085 0.633761
v 0.555557 0.927085 0.633762
v 0.538268 0.427085 0.643002
v 0.538268 0.927085 0.643003
v 0.519509 0.427085 0.648693
v 0.519509 0.927085 0.648693
v 0.500000 0.427085 0.650615
v 0.500000 0.927085 0.650615
v 0.480491 0.427085 0.648693
v 0.480491 0.927085 0.648693
v 0.461732 0.427085 0.643002
v 0.461732 0.927085 0.643002
v 0.444443 0.427085 0.633761
v 0.444443 0.927085 0.633761
v 0.429289 0.427085 0.621325
v 0.429289 0.927085 0.621325
v 0.416853 0.427085 0.606171
v 0.416853 0.927085 0.606171
v 0.407612 0.427085 0.588883
v 0.407612 0.927085 0.588883
v 0.401921 0.427085 0.570123
v 0.401921 0.927085 0.570123
vt 1.000000 0.500000
vt 1.000000 1.000000
vt 0.968750 1.000000
vt 0.968750 0.500000
vt 0.937500 1.000000
vt 0.937500 0.500000
vt 0.906250 1.000000
vt 0.906250 0.500000
vt 0.875000 1.000000
vt 0.875000 0.500000
vt 0.843750 1.000000
vt 0.843750 0.500000
vt 0.812500 1.000000
vt 0.812500 0.500000
vt 0.781250 1.000000
vt 0.781250 0.500000
vt 0.750000 1.000000
vt 0.750000 0.500000
vt 0.718750 1.000000
vt 0.718750 0.500000
vt 0.687500 1.000000
vt 0.687500 0.500000
vt 0.656250 1.000000
vt 0.656250 0.500000
vt 0.625000 1.000000
vt 0.625000 0.500000
vt 0.593750 1.000000
vt 0.593750 0.500000
vt 0.562500 1.000000
vt 0.562500 0.500000
vt 0.531250 1.000000
vt 0.531250 0.500000
vt 0.500000 1.000000
vt 0.500000 0.500000
vt 0.468750 1.000000
vt 0.468750 0.500000
vt 0.437500 1.000000
vt 0.437500 0.500000
vt 0.406250 1.000000
vt 0.406250 0.500000
vt 0.375000 1.000000
vt 0.375000 0.500000
vt 0.343750 1.000000
vt 0.343750 0.500000
vt 0.312500 1.000000
vt 0.312500 0.500000
vt 0.281250 1.000000
vt 0.281250 0.500000
vt 0.250000 1.000000
vt 0.250000 0.500000
vt 0.218750 1.000000
vt 0.218750 0.500000
vt 0.187500 1.000000
vt 0.187500 0.500000
vt 0.156250 1.000000
vt 0.156250 0.500000
vt 0.125000 1.000000
vt 0.125000 0.500000
vt 0.093750 1.000000
vt 0.093750 0.500000
vt 0.062500 1.000000
vt 0.062500 0.500000
vt 0.296822 0.485388
vt 0.250000 0.490000
vt 0.203179 0.485389
vt 0.158156 0.471731
vt 0.116663 0.449553
vt 0.080295 0.419706
vt 0.050447 0.383337
vt 0.028269 0.341844
vt 0.014612 0.296822
vt 0.010000 0.250000
vt 0.014611 0.203179
vt 0.028269 0.158156
vt 0.050447 0.116663
vt 0.080294 0.080294
vt 0.116663 0.050447
vt 0.158156 0.028269
vt 0.203178 0.014612
vt 0.250000 0.010000
vt 0.296822 0.014612
vt 0.341844 0.028269
vt 0.383337 0.050447
vt 0.419706 0.080294
vt 0.449553 0.116663
vt 0.471731 0.158156
vt 0.485388 0.203178
vt 0.490000 0.250000
vt 0.485388 0.296822
vt 0.471731 0.341844
vt 0.449553 0.383337
vt 0.419706 0.419706
vt 0.383337 0.449553
vt 0.341844 0.471731
vt 0.031250 1.000000
vt 0.031250 0.500000
vt 0.000000 1.000000
vt 0.000000 0.500000
vt 0.750000 0.490000
vt 0.796822 0.485388
vt 0.841844 0.471731
vt 0.883337 0.449553
vt 0.919706 0.419706
vt 0.949553 0.383337
vt 0.971731 0.341844
vt 0.985388 0.296822
vt 0.990000 0.250000
vt 0.985388 0.203178
vt 0.971731 0.158156
vt 0.949553 0.116663
vt 0.919706 0.080294
vt 0.883337 0.050447
vt 0.841844 0.028269
vt 0.796822 0.014612
vt 0.750000 0.010000
vt 0.703178 0.014612
vt 0.658156 0.028269
vt 0.616663 0.050447
vt 0.580294 0.080294
vt 0.550447 0.116663
vt 0.528269 0.158156
vt 0.514611 0.203179
vt 0.510000 0.250000
vt 0.514612 0.296822
vt 0.528269 0.341844
vt 0.550447 0.383337
vt 0.580295 0.419706
vt 0.616663 0.449553
vt 0.658156 0.471731
vt 0.703179 0.485389
vn -0.9952 -0.0000 -0.0980
vn -0.9569 0.0000 -0.2903
vn -0.8819 0.0000 -0.4714
vn -0.7730 0.0000 -0.6344
vn -0.6344 0.0000 -0.7730
vn -0.4714 0.0000 -0.8819
vn -0.2903 0.0000 -0.9569
vn -0.0980 0.0000 -0.9952
vn 0.0980 0.0000 -0.9952
vn 0.2903 0.0000 -0.9569
vn 0.4714 0.0000 -0.8819
vn 0.6344 0.0000 -0.7730
vn 0.7730 0.0000 -0.6344
vn 0.8819 0.0000 -0.4714
vn 0.9569 0.0000 -0.2903
vn 0.9952 0.0000 -0.0980
vn 0.9952 0.0000 0.0980
vn 0.9569 0.0000 0.2903
vn 0.8819 -0.0000 0.4714
vn 0.7730 -0.0000 0.6344
vn 0.6344 -0.0000 0.7730
vn 0.4714 -0.0000 0.8819
vn 0.2903 -0.0000 0.9569
vn 0.0980 -0.0000 0.9952
vn -0.0980 -0.0000 0.9952
vn -0.2903 -0.0000 0.9569
vn -0.4714 -0.0000 0.8819
vn -0.6344 -0.0000 0.7730
vn -0.7730 -0.0000 0.6344
vn -0.8819 0.0000 0.4714
vn 0.0000 1.0000 0.0000
vn -0.9569 -0.0000 0.2903
vn -0.9952 0.0000 0.0980
vn 0.0000 -1.0000 0.0000
usemtl None
s off
f 93/186/61 94/187/61 96/188/61 95/189/61
f 95/189/62 96/188/62 98/190/62 97/191/62
f 97/191/63 98/190/63 100/192/63 99/193/63
f 99/193/64 100/192/64 102/194/64 101/195/64
f 101/195/65 102/194/65 104/196/65 103/197/65
f 103/197/66 104/196/66 106/198/66 105/199/66
f 105/199/67 106/198/67 108/200/67 107/201/67
f 107/201/68 108/200/68 110/202/68 109/203/68
f 109/203/69 110/202/69 112/204/69 111/205/69
f 111/205/70 112/204/70 114/206/70 113/207/70
f 113/207/71 114/206/71 116/208/71 115/209/71
f 115/209/72 116/208/72 118/210/72 117/211/72
f 117/211/73 118/210/73 120/212/73 119/213/73
f 119/213/74 120/212/74 122/214/74 121/215/74
f 121/215/75 122/214/75 124/216/75 123/217/75
f 123/217/76 124/216/76 126/218/76 125/219/76
f 125/219/77 126/218/77 128/220/77 127/221/77
f 127/221/78 128/220/78 130/222/78 129/223/78
f 129/223/79 130/222/79 132/224/79 131/225/79
f 131/225/80 132/224/80 134/226/80 133/227/80
f 133/227/81 134/226/81 136/228/81 135/229/81
f 135/229/82 136/228/82 138/230/82 137/231/82
f 137/231/83 138/230/83 140/232/83 139/233/83
f 139/233/84 140/232/84 142/234/84 141/235/84
f 141/235/85 142/234/85 144/236/85 143/237/85
f 143/237/86 144/236/86 146/238/86 145/239/86
f 145/239/87 146/238/87 148/240/87 147/241/87
f 147/241/88 148/240/88 150/242/88 149/243/88
f 149/243/89 150/242/89 152/244/89 151/245/89
f 151/245/90 152/244/90 154/246/90 153/247/90
f 96/248/91 94/249/91 156/250/91 154/251/91 152/252/91 150/253/91 148/254/91 146/255/91 144/256/91 142/257/91 140/258/91 138/259/91 136/260/91 134/261/91 132/262/91 130/263/91 128/264/91 126/265/91 124/266/91 122/267/91 120/268/91 118/269/91 116/270/91 114/271/91 112/272/91 110/273/91 108/274/91 106/275/91 104/276/91 102/277/91 100/278/91 98/279/91
f 153/247/92 154/246/92 156/280/92 155/281/92
f 155/281/93 156/280/93 94/282/93 93/283/93
f 93/284/94 95/285/94 97/286/94 99/287/94 101/288/94 103/289/94 105/290/94 107/291/94 109/292/94 111/293/94 113/294/94 115/295/94 117/296/94 119/297/94 121/298/94 123/299/94 125/300/94 127/301/94 129/302/94 131/303/94 133/304/94 135/305/94 137/306/94 139/307/94 141/308/94 143/309/94 145/310/94 147/311/94 149/312/94 151/313/94 153/314/94 155/315/94
